<svg id="Livello_1" data-name="Livello 1" xmlns="http://www.w3.org/2000/svg" viewBox="0 0 612 792"><defs><style>.cls-1{fill:#cc3636;}</style></defs><title>Tavola disegno 1</title><path d="M172.23,388.56h64.09c.12,2.36.19,4.69.37,7,.15,1.8.37,3.6.69,5.37.85,4.58,3.75,7.48,7.88,9.33,4.38,2,9.08,2.44,13.76,2.57,13.1.38,26.21.7,39.31.72,16.63,0,33.26-.16,49.89-.47,5-.09,9.92-.83,14.87-1.4a22.08,22.08,0,0,0,4.38-1.2,8.82,8.82,0,0,0,6.49-7.57,46,46,0,0,0-.18-15.17,10.05,10.05,0,0,0-6.54-7.68c-4.44-1.76-9.13-2.1-13.83-2.28-29-1.14-58-2.21-86.94-3.4-13-.53-25.91-1.1-38.83-2a91.28,91.28,0,0,1-24.7-4.88c-7.67-2.75-14.35-6.91-19.19-13.62a46.5,46.5,0,0,1-7.47-18.15c-2.16-10.41-2.33-21-2.09-31.53a106.83,106.83,0,0,1,3.87-27.77c2.57-8.76,6.85-16.49,14-22.41,5.76-4.76,12.44-7.66,19.59-9.63,7.59-2.09,15.4-2.75,23.2-3.21,35.57-2.08,71.18-2,106.78-1.43,14.38.24,28.75.88,43,3.16a87.5,87.5,0,0,1,18.68,4.93c14,5.61,22.63,15.72,25.64,30.57a118.2,118.2,0,0,1,1.88,28.16c-.06,1.5-.15,3-.23,4.66H368.41c-1.9,0-1.82,0-2-1.9-.22-2.68-.49-5.35-.88-8-.7-4.76-3.65-7.63-8-9.23s-8.81-1.79-13.3-2c-5.42-.29-10.85-.52-16.27-.52-20.5,0-41,.05-61.48.28-5.06.05-10.12.85-15.18,1.36a18.3,18.3,0,0,0-3,.63c-6.72,1.82-9.19,4.53-9.73,11.44a36.88,36.88,0,0,0,.52,9c.67,3.83,3.14,6.41,6.8,7.8a37.55,37.55,0,0,0,11.81,2.05c21,.94,41.92,1.74,62.88,2.69,20.47.93,40.94,1.82,61.39,3,9,.54,18,1.73,26.6,4.9,11.69,4.33,20.52,11.8,25.18,23.63a68.67,68.67,0,0,1,4.51,22.29c.32,6.93.52,13.89.28,20.82-.39,11.59-1.55,23.07-6.05,34a40.77,40.77,0,0,1-20.9,22c-7,3.36-14.59,4.74-22.23,5.63-16.1,1.87-32.3,2.25-48.49,2.48-28.9.41-57.81.63-86.7-.53-13.4-.53-26.77-1.41-40-4a70.68,70.68,0,0,1-18.53-5.92c-8.1-4.08-14.59-9.83-18.36-18.24a56,56,0,0,1-4.25-16.52c-1.15-9.6-.9-19.24-.9-28.87C172.16,389.21,172.2,388.93,172.23,388.56Z"/><path class="cls-1" d="M152.94,434.09v41.36c-.36,0-.65.07-.93.06-12.42-.21-24.84-.34-37.26-.66a144.79,144.79,0,0,1-25.5-2.67c-19-3.92-30.62-15.86-36.46-33.92-2.23-6.9-3.17-14.07-3.84-21.27-2.91-31.13-2.17-62.33-2-93.52,0-9.53.47-19.07,1.18-28.57.8-10.75,2-21.48,5.74-31.73A48.38,48.38,0,0,1,68.1,242.86a43.56,43.56,0,0,1,12.46-7c7.2-2.9,14.76-3.9,22.42-4.54,16.21-1.37,32.45-1.17,48.68-1.22,1,0,1.39.23,1.39,1.31q0,19.14,0,38.29c0,.24,0,.48-.09.95-.63,0-1.24,0-1.85,0-7.73.19-15.46.22-23.16.68a41.58,41.58,0,0,0-10,2c-6,1.89-9.37,6.29-10,12.47-.71,6.45-1.35,12.94-1.45,19.42q-.53,34.92-.62,69.83,0,15.1.65,30.21a112.24,112.24,0,0,0,2,16.24c1.12,5.78,5,9.42,10.74,10.53A101.48,101.48,0,0,0,133,433.57c6.11.33,12.23.27,18.34.39C151.85,434,152.37,434,152.94,434.09Z"/><path class="cls-1" d="M457.61,434.09v41.36c.36,0,.65.07.93.06,12.42-.21,24.84-.34,37.25-.66a144.9,144.9,0,0,0,25.51-2.67c19-3.92,30.62-15.86,36.45-33.92,2.24-6.9,3.18-14.07,3.85-21.27,2.91-31.13,2.17-62.33,2-93.52-.05-9.53-.47-19.07-1.18-28.57-.8-10.75-2-21.48-5.74-31.73a48.38,48.38,0,0,0-14.22-20.31,43.56,43.56,0,0,0-12.46-7c-7.2-2.9-14.76-3.9-22.42-4.54-16.21-1.37-32.45-1.17-48.68-1.22-1,0-1.39.23-1.39,1.31q0,19.14,0,38.29c0,.24,0,.48.09.95.63,0,1.24,0,1.85,0,7.72.19,15.46.22,23.16.68a41.58,41.58,0,0,1,10,2c6,1.89,9.37,6.29,10,12.47.71,6.45,1.35,12.94,1.45,19.42q.53,34.92.62,69.83,0,15.1-.65,30.21a112.24,112.24,0,0,1-2,16.24c-1.12,5.78-5,9.42-10.74,10.53a101.45,101.45,0,0,1-13.82,1.54c-6.1.33-12.22.27-18.33.39C458.7,434,458.17,434,457.61,434.09Z"/><path d="M118.94,512.94h-9.17c-.13-1.76-.25-3.46-.4-5.15-.23-2.68-1.54-4.73-4.13-5.5a45.79,45.79,0,0,0-8.85-1.9,162.12,162.12,0,0,0-32.22.41,30.93,30.93,0,0,0-6.24,1.54c-3.57,1.21-5.23,4-5.49,7.59a31.46,31.46,0,0,0,.3,6.57,5.49,5.49,0,0,0,4.21,5,56.39,56.39,0,0,0,10.66,1.72c10.31.33,20.64.3,31,.47a80.06,80.06,0,0,1,8.49.46c8.13,1,12.33,4.95,13.79,13a28.45,28.45,0,0,1-1,14.47c-1.54,4.47-4.59,7.64-9.16,8.72a72.62,72.62,0,0,1-14,2.17c-10.65.38-21.31.34-32,.29A47.57,47.57,0,0,1,55,561.68a23.56,23.56,0,0,1-6.56-2.75,10.24,10.24,0,0,1-4.66-6.35A32.07,32.07,0,0,1,43,540.94h9c.14,2.34.25,4.58.43,6.81.29,3.61,1.95,5.57,5.52,6.21a56.21,56.21,0,0,0,7.42.86c11.68.48,23.37.77,35-.51a46,46,0,0,0,5.05-.87,7.24,7.24,0,0,0,5.54-5.32,19.1,19.1,0,0,0-.06-11A5.73,5.73,0,0,0,107,533a17.8,17.8,0,0,0-5-1.06c-10.8-.2-21.61-.21-32.42-.38-3.66-.06-7.32-.39-11-.65a20.58,20.58,0,0,1-2.88-.55c-7.36-1.64-11.71-6.11-12.74-13.65a29.35,29.35,0,0,1,.37-10.93c1.6-6.62,6.16-10.33,12.47-11.56a128.44,128.44,0,0,1,18-2.07c7-.34,14-.32,21,0a71.91,71.91,0,0,1,12.84,2,18.63,18.63,0,0,1,5.94,3.05c4.23,2.91,5,7.46,5.28,12.15C119,510.52,118.94,511.65,118.94,512.94Z"/><path d="M139.25,501v61.75H130V492.17c.39,0,.8-.1,1.22-.1,4.35,0,8.71,0,13.06,0a2.93,2.93,0,0,1,2.28,1q29.91,30.06,59.84,60.1a3,3,0,0,0,3.38.93V492.17h9.31V562.7c-.36,0-.78.1-1.19.1-4.5,0-9,0-13.5,0a3,3,0,0,1-2.39-1.12q-29.74-29.91-59.48-59.84A2.89,2.89,0,0,0,139.25,501Z"/><path d="M473.15,515.37h-8.82c-.12-2.18-.1-4.28-.38-6.35-.6-4.53-2.5-6.6-7.05-7.3a104.77,104.77,0,0,0-12.25-1.22c-11.09-.39-22.2-.52-33.25.86a36.27,36.27,0,0,0-4.57,1,5.82,5.82,0,0,0-4,3.92c-1.51,3.95-1.79,8.12-2,12.25a172.17,172.17,0,0,0,1.06,27.52c.55,4.62,2.82,6.9,7.45,7.5a86.11,86.11,0,0,0,11.11.82c10.7,0,21.4-.18,32.1-.38a31.08,31.08,0,0,0,5.66-.78c4.27-.9,5.85-2.73,6.23-7.1.21-2.38.28-4.77.42-7.27h9c-.18,3-.31,5.9-.53,8.81a36.93,36.93,0,0,1-.52,4.06,11,11,0,0,1-8.94,9.38,56.15,56.15,0,0,1-12,1.61c-12.32.15-24.64,0-37-.14a58.27,58.27,0,0,1-9.75-1.13c-7.56-1.42-11.24-5.29-12.62-12.89-1.51-8.28-1.46-16.63-1.31-25a92.24,92.24,0,0,1,1.6-17.78c1.64-7.68,5.82-11.57,13.66-12.52a235.18,235.18,0,0,1,35.3-1.29c5.36.16,10.73.51,16.08,1a18.87,18.87,0,0,1,9.45,3.3c2.74,2,4.76,4.5,5,8.05S472.89,511.64,473.15,515.37Z"/><path d="M556.53,492.15h9.36v70.54h-9.3V530.35H491.21V562.7H481.9V492.17h9.26v1.68c0,8.85,0,17.7,0,26.55,0,1.26.29,1.67,1.61,1.67q31.11-.08,62.2,0h1.59Z"/><path d="M225.67,562.81c.28-.59.44-1,.65-1.35q19.32-34.11,38.63-68.21a1.91,1.91,0,0,1,1.95-1.14c4.21.05,8.41,0,12.62,0a1.71,1.71,0,0,1,1.72,1Q300.6,527.45,320,561.75c.14.25.26.52.52,1.06H315.9c-1.46,0-2.93-.07-4.4,0a2,2,0,0,1-2-1.22q-16.66-29.88-33.4-59.72a3.81,3.81,0,0,0-4.46-1.44,2.77,2.77,0,0,0-.87,1.12Q253.86,531.51,237,561.45a2.3,2.3,0,0,1-2.39,1.38C231.7,562.76,228.78,562.81,225.67,562.81Z"/><path d="M351.62,500.2v62.48h-9.45V500.31H306.66v-8.14h80.17v8Z"/></svg>